<svg width="21" height="24" viewBox="0 0 21 24" fill="none" xmlns="http://www.w3.org/2000/svg">
<path d="M20.8082 19.4462C20.7401 19.3051 20.6302 19.1884 20.4935 19.1119C20.3568 19.0353 20.1999 19.0026 20.044 19.0182H19.3944C17.4928 18.9664 15.665 18.2711 14.2097 17.046C12.7543 15.8209 11.7576 14.1384 11.3823 12.2734C11.007 10.4085 11.2753 8.47138 12.1435 6.7787C13.0116 5.08601 14.4282 3.73783 16.1618 2.95448C16.31 2.89229 16.4348 2.78497 16.5185 2.64777C16.6022 2.51057 16.6405 2.35048 16.628 2.19026C16.6227 2.03623 16.571 1.8874 16.4796 1.76329C16.3882 1.63918 16.2615 1.5456 16.1159 1.49483C14.8904 1.05335 13.5975 0.828379 12.2949 0.829964C9.23034 0.829964 6.2913 2.04735 4.12434 4.21431C1.95738 6.38128 0.73999 9.32031 0.73999 12.3849C0.73999 15.4494 1.95738 18.3884 4.12434 20.5554C6.2913 22.7224 9.23034 23.9398 12.2949 23.9398C13.8753 23.9493 15.4401 23.627 16.8881 22.9938C18.3361 22.3606 19.6352 21.4306 20.7012 20.2639C20.7954 20.1521 20.8555 20.0156 20.8745 19.8707C20.8934 19.7258 20.8704 19.5784 20.8082 19.4462V19.4462ZM12.3178 22.4495C9.65863 22.4495 7.10835 21.3932 5.22803 19.5129C3.3477 17.6325 2.29134 15.0823 2.29134 12.4231C2.29134 9.76388 3.3477 7.21361 5.22803 5.33329C7.10835 3.45296 9.65863 2.3966 12.3178 2.3966C12.8298 2.39393 13.3412 2.43483 13.8462 2.51887C12.2092 3.6658 10.9562 5.27984 10.251 7.1501C9.54577 9.02036 9.42108 11.0599 9.89323 13.0021C10.3654 14.9443 11.4124 16.699 12.8975 18.0368C14.3826 19.3746 16.2367 20.2333 18.2175 20.5008C16.5163 21.7768 14.4443 22.4612 12.3178 22.4495V22.4495Z" fill="#ecf0f3" fill-opacity="0.8"/>
</svg>
