<svg width="24" height="24" viewBox="0 0 24 24" fill="none" xmlns="http://www.w3.org/2000/svg">
<g clip-path="url(#clip0_414:579)">
<path d="M11.7264 4.05061C11.8967 4.05061 12.06 3.98297 12.1803 3.86259C12.3007 3.7422 12.3684 3.57892 12.3684 3.40866V1.22605C12.3684 1.0558 12.3007 0.892516 12.1803 0.772128C12.06 0.65174 11.8967 0.584106 11.7264 0.584106C11.5562 0.584106 11.3929 0.65174 11.2725 0.772128C11.1521 0.892516 11.0845 1.0558 11.0845 1.22605V3.40866C11.0845 3.57892 11.1521 3.7422 11.2725 3.86259C11.3929 3.98297 11.5562 4.05061 11.7264 4.05061Z" fill="#ffd700" fill-opacity="0.8"/>
<path d="M11.7264 19.0593C11.5562 19.0593 11.3929 19.127 11.2725 19.2473C11.1521 19.3677 11.0845 19.531 11.0845 19.7013V21.8839C11.0845 22.0541 11.1521 22.2174 11.2725 22.3378C11.3929 22.4582 11.5562 22.5258 11.7264 22.5258C11.8967 22.5258 12.06 22.4582 12.1803 22.3378C12.3007 22.2174 12.3684 22.0541 12.3684 21.8839V19.7013C12.3684 19.531 12.3007 19.3677 12.1803 19.2473C12.06 19.127 11.8967 19.0593 11.7264 19.0593Z" fill="#ffd700" fill-opacity="0.8"/>
<path d="M5.51241 6.25258C5.63178 6.36109 5.78762 6.42068 5.94893 6.41949C6.03342 6.41998 6.11717 6.40378 6.19538 6.37184C6.27359 6.33989 6.34473 6.29282 6.40471 6.23333C6.46488 6.17365 6.51264 6.10265 6.54523 6.02442C6.57782 5.9462 6.5946 5.86229 6.5946 5.77755C6.5946 5.6928 6.57782 5.6089 6.54523 5.53067C6.51264 5.45244 6.46488 5.38144 6.40471 5.32176L4.87688 3.80036C4.75408 3.69519 4.59611 3.64023 4.43455 3.64647C4.27299 3.65272 4.11973 3.71969 4.0054 3.83402C3.89108 3.94834 3.8241 4.1016 3.81786 4.26316C3.81162 4.42473 3.86658 4.58269 3.97174 4.7055L5.51241 6.25258Z" fill="#ffd700" fill-opacity="0.8"/>
<path d="M17.9404 16.8575C17.8806 16.7976 17.8095 16.7502 17.7313 16.7178C17.6531 16.6854 17.5693 16.6687 17.4847 16.6687C17.4 16.6687 17.3162 16.6854 17.238 16.7178C17.1598 16.7502 17.0887 16.7976 17.0289 16.8575C16.969 16.9173 16.9215 16.9884 16.8892 17.0666C16.8568 17.1448 16.8401 17.2286 16.8401 17.3133C16.8401 17.3979 16.8568 17.4817 16.8892 17.5599C16.9215 17.6381 16.969 17.7092 17.0289 17.7691L18.576 19.3097C18.6354 19.3704 18.7063 19.4186 18.7846 19.4517C18.8628 19.4847 18.9468 19.5019 19.0317 19.5023C19.2011 19.4999 19.3626 19.4307 19.4811 19.3097C19.6007 19.1894 19.6678 19.0267 19.6678 18.8571C19.6678 18.6876 19.6007 18.5249 19.4811 18.4046L17.9404 16.8575Z" fill="#ffd700" fill-opacity="0.8"/>
<path d="M4.22211 11.555C4.22211 11.3848 4.15448 11.2215 4.03409 11.1011C3.91371 10.9807 3.75042 10.9131 3.58017 10.9131H1.39756C1.22731 10.9131 1.06402 10.9807 0.943636 11.1011C0.823248 11.2215 0.755615 11.3848 0.755615 11.555C0.755615 11.7253 0.823248 11.8886 0.943636 12.009C1.06402 12.1293 1.22731 12.197 1.39756 12.197H3.58017C3.75042 12.197 3.91371 12.1293 4.03409 12.009C4.15448 11.8886 4.22211 11.7253 4.22211 11.555Z" fill="#ffd700" fill-opacity="0.8"/>
<path d="M22.0553 10.9131H19.8727C19.7024 10.9131 19.5391 10.9807 19.4187 11.1011C19.2983 11.2215 19.2307 11.3848 19.2307 11.555C19.2307 11.7253 19.2983 11.8886 19.4187 12.009C19.5391 12.1293 19.7024 12.197 19.8727 12.197H22.0553C22.2255 12.197 22.3888 12.1293 22.5092 12.009C22.6296 11.8886 22.6972 11.7253 22.6972 11.555C22.6972 11.3848 22.6296 11.2215 22.5092 11.1011C22.3888 10.9807 22.2255 10.9131 22.0553 10.9131Z" fill="#ffd700" fill-opacity="0.8"/>
<path d="M5.5123 16.8575L3.97163 18.4046C3.88149 18.494 3.81988 18.6081 3.7946 18.7325C3.76931 18.8569 3.78149 18.9861 3.82959 19.1036C3.87769 19.2211 3.95955 19.3217 4.06481 19.3926C4.17008 19.4636 4.29403 19.5018 4.42099 19.5023C4.50593 19.5019 4.58994 19.4847 4.66818 19.4517C4.74642 19.4186 4.81732 19.3704 4.87677 19.3097L6.42386 17.7691C6.54474 17.6482 6.61265 17.4842 6.61265 17.3133C6.61265 17.1423 6.54474 16.9784 6.42386 16.8575C6.30298 16.7366 6.13903 16.6687 5.96808 16.6687C5.79713 16.6687 5.63318 16.7366 5.5123 16.8575Z" fill="#ffd700" fill-opacity="0.8"/>
<path d="M17.5038 6.41943C17.5883 6.41991 17.6721 6.40372 17.7503 6.37177C17.8285 6.33983 17.8996 6.29276 17.9596 6.23326L19.5003 4.68618C19.6198 4.5659 19.6869 4.4032 19.6869 4.2336C19.6869 4.06401 19.6198 3.90131 19.5003 3.78103C19.38 3.66147 19.2173 3.59436 19.0477 3.59436C18.8781 3.59436 18.7154 3.66147 18.5951 3.78103L17.048 5.3217C16.9879 5.38138 16.9401 5.45238 16.9075 5.5306C16.8749 5.60883 16.8582 5.69274 16.8582 5.77748C16.8582 5.86223 16.8749 5.94613 16.9075 6.02436C16.9401 6.10258 16.9879 6.17358 17.048 6.23326C17.108 6.29276 17.1792 6.33983 17.2574 6.37177C17.3356 6.40372 17.4193 6.41991 17.5038 6.41943Z" fill="#ffd700" fill-opacity="0.8"/>
<path d="M11.8097 4.97502C10.5202 4.95847 9.25479 5.32575 8.17447 6.03016C7.09416 6.73457 6.24769 7.7443 5.74268 8.931C5.23767 10.1177 5.09692 11.4278 5.33834 12.6946C5.57975 13.9615 6.19241 15.128 7.09845 16.0458C8.00448 16.9637 9.16297 17.5913 10.4266 17.8491C11.6903 18.1068 13.0021 17.983 14.1952 17.4934C15.3883 17.0037 16.4089 16.1704 17.1272 15.0993C17.8455 14.0281 18.2291 12.7676 18.2292 11.4779C18.2377 9.76507 17.5668 8.1187 16.3635 6.89972C15.1601 5.68073 13.5226 4.9886 11.8097 4.97502ZM11.8097 16.6905C10.7739 16.7071 9.75647 16.415 8.88716 15.8514C8.01785 15.2878 7.33595 14.4782 6.92829 13.5258C6.52063 12.5733 6.40567 11.5211 6.59805 10.5031C6.79042 9.48507 7.28142 8.54736 8.00853 7.80935C8.73563 7.07134 9.66593 6.56643 10.681 6.35892C11.696 6.15141 12.7498 6.25069 13.7082 6.64412C14.6666 7.03756 15.4863 7.70733 16.0627 8.56816C16.6392 9.42898 16.9464 10.4419 16.9453 11.4779C16.9522 12.8492 16.4157 14.1673 15.4534 15.1441C14.491 16.121 13.1809 16.677 11.8097 16.6905Z" fill="#ffd700" fill-opacity="0.8"/>
</g>
<defs>
<clipPath id="clip0_414:579">
<rect width="23.11" height="23.11" fill="white" transform="translate(0.171387)"/>
</clipPath>
</defs>
</svg>
